<svg width="455" height="136" viewBox="0 0 455 136" fill="none" xmlns="http://www.w3.org/2000/svg">
<path d="M36.8281 3.23438V53H27.1553L11.5352 21.8623V53H2.0332V3.23438H11.5693L27.3262 34.7139V3.23438H36.8281ZM60.7197 44.4893V27.3994C60.7197 26.2829 60.583 25.3942 60.3096 24.7334C60.0589 24.0726 59.6715 23.5941 59.1475 23.2979C58.6462 22.9788 58.0309 22.8193 57.3018 22.8193C56.4814 22.8193 55.7979 22.9902 55.251 23.332C54.7041 23.6738 54.2939 24.1637 54.0205 24.8018C53.7699 25.4398 53.6445 26.2031 53.6445 27.0918H44.04C44.04 25.4967 44.3477 23.9928 44.9629 22.5801C45.5781 21.1445 46.4782 19.8913 47.6631 18.8203C48.8708 17.7266 50.3063 16.8721 51.9697 16.2568C53.6331 15.6416 55.5016 15.334 57.5752 15.334C60.0361 15.334 62.2236 15.7555 64.1377 16.5986C66.0518 17.4189 67.5671 18.7292 68.6836 20.5293C69.8001 22.3294 70.3584 24.665 70.3584 27.5361V44.0107C70.3584 46.0843 70.4609 47.7705 70.666 49.0693C70.8939 50.3682 71.2243 51.4847 71.6572 52.4189V53H62.0186C61.5856 51.9746 61.2552 50.6986 61.0273 49.1719C60.8223 47.6224 60.7197 46.0615 60.7197 44.4893ZM61.8818 30.4072L61.916 36.1494H58.3955C57.484 36.1494 56.6865 36.2975 56.0029 36.5938C55.3421 36.89 54.7839 37.3115 54.3281 37.8584C53.8724 38.3825 53.5306 38.9977 53.3027 39.7041C53.0977 40.4105 52.9951 41.1624 52.9951 41.96C52.9951 42.8486 53.1204 43.6006 53.3711 44.2158C53.6217 44.8311 53.9977 45.2982 54.499 45.6172C55.0003 45.9362 55.5928 46.0957 56.2764 46.0957C57.3245 46.0957 58.236 45.8792 59.0107 45.4463C59.7855 45.0133 60.3551 44.4893 60.7197 43.874C61.1071 43.2588 61.2324 42.6891 61.0957 42.165L63.2832 45.8906C63.0098 46.7337 62.6338 47.611 62.1553 48.5225C61.6995 49.4339 61.1185 50.277 60.4121 51.0518C59.7057 51.8265 58.8285 52.4645 57.7803 52.9658C56.7549 53.4443 55.5358 53.6836 54.123 53.6836C52.1406 53.6836 50.3291 53.2279 48.6885 52.3164C47.0479 51.4049 45.749 50.1289 44.792 48.4883C43.8577 46.8477 43.3906 44.8994 43.3906 42.6436C43.3906 40.7751 43.6868 39.0889 44.2793 37.585C44.8945 36.0583 45.806 34.7708 47.0137 33.7227C48.2214 32.6517 49.748 31.8314 51.5938 31.2617C53.4395 30.6921 55.6042 30.4072 58.0879 30.4072H61.8818ZM103.615 0.5V53H94.0107V0.5H103.615ZM129.079 44.1133V16.0176H138.684V53H129.66L129.079 44.1133ZM130.173 36.4912L132.839 36.4229C132.839 38.9066 132.6 41.208 132.121 43.3271C131.643 45.4235 130.925 47.2464 129.968 48.7959C129.011 50.3454 127.814 51.5531 126.379 52.4189C124.943 53.262 123.246 53.6836 121.286 53.6836C119.782 53.6836 118.392 53.4329 117.116 52.9316C115.863 52.4076 114.781 51.5986 113.869 50.5049C112.958 49.3883 112.24 47.9642 111.716 46.2324C111.215 44.4779 110.964 42.3701 110.964 39.9092V16.0176H120.568V40.0117C120.568 41.0143 120.66 41.8802 120.842 42.6094C121.024 43.3158 121.275 43.8968 121.594 44.3525C121.913 44.8083 122.289 45.1387 122.722 45.3438C123.155 45.526 123.645 45.6172 124.191 45.6172C125.695 45.6172 126.88 45.2298 127.746 44.4551C128.635 43.6576 129.261 42.5752 129.626 41.208C129.991 39.818 130.173 38.2458 130.173 36.4912ZM161.789 16.0176V23.2295H142.922V16.0176H161.789ZM147.263 6.8916H156.799V41.7207C156.799 42.7461 156.901 43.5322 157.106 44.0791C157.312 44.626 157.619 45.0133 158.029 45.2412C158.462 45.4463 159.032 45.5488 159.738 45.5488C160.217 45.5488 160.661 45.526 161.071 45.4805C161.481 45.4121 161.789 45.3438 161.994 45.2754V52.7607C161.242 53.057 160.445 53.2848 159.602 53.4443C158.781 53.6038 157.801 53.6836 156.662 53.6836C154.748 53.6836 153.085 53.319 151.672 52.5898C150.282 51.8607 149.2 50.6986 148.425 49.1035C147.65 47.4857 147.263 45.3665 147.263 42.7461V6.8916ZM183.425 44.4893V27.3994C183.425 26.2829 183.288 25.3942 183.015 24.7334C182.764 24.0726 182.377 23.5941 181.853 23.2979C181.351 22.9788 180.736 22.8193 180.007 22.8193C179.187 22.8193 178.503 22.9902 177.956 23.332C177.409 23.6738 176.999 24.1637 176.726 24.8018C176.475 25.4398 176.35 26.2031 176.35 27.0918H166.745C166.745 25.4967 167.053 23.9928 167.668 22.5801C168.283 21.1445 169.183 19.8913 170.368 18.8203C171.576 17.7266 173.011 16.8721 174.675 16.2568C176.338 15.6416 178.207 15.334 180.28 15.334C182.741 15.334 184.929 15.7555 186.843 16.5986C188.757 17.4189 190.272 18.7292 191.389 20.5293C192.505 22.3294 193.063 24.665 193.063 27.5361V44.0107C193.063 46.0843 193.166 47.7705 193.371 49.0693C193.599 50.3682 193.929 51.4847 194.362 52.4189V53H184.724C184.291 51.9746 183.96 50.6986 183.732 49.1719C183.527 47.6224 183.425 46.0615 183.425 44.4893ZM184.587 30.4072L184.621 36.1494H181.101C180.189 36.1494 179.392 36.2975 178.708 36.5938C178.047 36.89 177.489 37.3115 177.033 37.8584C176.577 38.3825 176.236 38.9977 176.008 39.7041C175.803 40.4105 175.7 41.1624 175.7 41.96C175.7 42.8486 175.826 43.6006 176.076 44.2158C176.327 44.8311 176.703 45.2982 177.204 45.6172C177.705 45.9362 178.298 46.0957 178.981 46.0957C180.03 46.0957 180.941 45.8792 181.716 45.4463C182.491 45.0133 183.06 44.4893 183.425 43.874C183.812 43.2588 183.938 42.6891 183.801 42.165L185.988 45.8906C185.715 46.7337 185.339 47.611 184.86 48.5225C184.405 49.4339 183.824 50.277 183.117 51.0518C182.411 51.8265 181.534 52.4645 180.485 52.9658C179.46 53.4443 178.241 53.6836 176.828 53.6836C174.846 53.6836 173.034 53.2279 171.394 52.3164C169.753 51.4049 168.454 50.1289 167.497 48.4883C166.563 46.8477 166.096 44.8994 166.096 42.6436C166.096 40.7751 166.392 39.0889 166.984 37.585C167.6 36.0583 168.511 34.7708 169.719 33.7227C170.926 32.6517 172.453 31.8314 174.299 31.2617C176.145 30.6921 178.309 30.4072 180.793 30.4072H184.587ZM229.636 45.7197C230.524 45.7197 231.288 45.5374 231.926 45.1729C232.587 44.8083 233.088 44.2158 233.43 43.3955C233.771 42.5752 233.954 41.5156 233.977 40.2168H242.966C242.966 42.9967 242.373 45.4007 241.188 47.4287C240.026 49.4339 238.454 50.9834 236.472 52.0771C234.512 53.1481 232.29 53.6836 229.807 53.6836C227.323 53.6836 225.158 53.2848 223.312 52.4873C221.467 51.6898 219.94 50.5277 218.732 49.001C217.548 47.4743 216.647 45.6172 216.032 43.4297C215.44 41.2194 215.144 38.6901 215.144 35.8418V33.1416C215.144 30.3389 215.44 27.8324 216.032 25.6221C216.647 23.4118 217.548 21.5433 218.732 20.0166C219.94 18.4899 221.455 17.3278 223.278 16.5303C225.124 15.7327 227.289 15.334 229.772 15.334C232.438 15.334 234.751 15.8923 236.711 17.0088C238.671 18.1025 240.197 19.7204 241.291 21.8623C242.408 24.0042 242.966 26.6475 242.966 29.792H233.977C233.954 28.3792 233.783 27.2057 233.464 26.2715C233.168 25.3145 232.701 24.5853 232.062 24.084C231.447 23.5599 230.627 23.2979 229.602 23.2979C228.531 23.2979 227.665 23.5257 227.004 23.9814C226.366 24.4144 225.876 25.0524 225.534 25.8955C225.215 26.7158 224.999 27.7412 224.885 28.9717C224.771 30.2021 224.714 31.5921 224.714 33.1416V35.8418C224.714 37.5052 224.759 38.9521 224.851 40.1826C224.965 41.3903 225.181 42.4157 225.5 43.2588C225.842 44.0791 226.332 44.6943 226.97 45.1045C227.631 45.5146 228.519 45.7197 229.636 45.7197ZM247.375 35.7734V33.2783C247.375 30.3844 247.717 27.821 248.4 25.5879C249.107 23.3548 250.109 21.4863 251.408 19.9824C252.707 18.4557 254.268 17.305 256.091 16.5303C257.937 15.7327 259.999 15.334 262.277 15.334C264.579 15.334 266.641 15.7327 268.464 16.5303C270.31 17.305 271.882 18.4557 273.181 19.9824C274.502 21.4863 275.516 23.3548 276.223 25.5879C276.929 27.821 277.282 30.3844 277.282 33.2783V35.7734C277.282 38.6445 276.929 41.1966 276.223 43.4297C275.516 45.6628 274.502 47.5426 273.181 49.0693C271.882 50.596 270.321 51.7467 268.498 52.5215C266.675 53.2962 264.624 53.6836 262.346 53.6836C260.067 53.6836 258.005 53.2962 256.159 52.5215C254.336 51.7467 252.764 50.596 251.442 49.0693C250.121 47.5426 249.107 45.6628 248.4 43.4297C247.717 41.1966 247.375 38.6445 247.375 35.7734ZM256.945 33.2783V35.7734C256.945 37.4824 257.059 38.9635 257.287 40.2168C257.538 41.4701 257.891 42.5068 258.347 43.3271C258.825 44.1475 259.395 44.7513 260.056 45.1387C260.716 45.526 261.48 45.7197 262.346 45.7197C263.212 45.7197 263.986 45.526 264.67 45.1387C265.354 44.7513 265.912 44.1475 266.345 43.3271C266.8 42.5068 267.131 41.4701 267.336 40.2168C267.564 38.9635 267.678 37.4824 267.678 35.7734V33.2783C267.678 31.6149 267.552 30.1566 267.302 28.9033C267.051 27.6273 266.698 26.5905 266.242 25.793C265.786 24.9727 265.217 24.3574 264.533 23.9473C263.872 23.5143 263.12 23.2979 262.277 23.2979C261.434 23.2979 260.682 23.5143 260.021 23.9473C259.383 24.3574 258.825 24.9727 258.347 25.793C257.891 26.5905 257.538 27.6273 257.287 28.9033C257.059 30.1566 256.945 31.6149 256.945 33.2783ZM292.731 23.9131V53H283.127V16.0176H292.116L292.731 23.9131ZM291.296 33.2441L288.732 33.3125C288.687 30.5326 288.949 28.0374 289.519 25.8271C290.111 23.6169 290.943 21.737 292.014 20.1875C293.107 18.6152 294.406 17.4189 295.91 16.5986C297.437 15.7555 299.134 15.334 301.003 15.334C302.438 15.334 303.749 15.5846 304.934 16.0859C306.141 16.5872 307.178 17.3848 308.044 18.4785C308.91 19.5723 309.582 21.0306 310.061 22.8535C310.539 24.6536 310.778 26.8639 310.778 29.4844V53H301.174V29.416C301.174 27.821 301.014 26.5905 300.695 25.7246C300.376 24.8359 299.898 24.2207 299.26 23.8789C298.622 23.5143 297.824 23.332 296.867 23.332C295.956 23.332 295.147 23.5941 294.44 24.1182C293.734 24.6195 293.142 25.3145 292.663 26.2031C292.207 27.0918 291.854 28.14 291.604 29.3477C291.376 30.5553 291.273 31.8542 291.296 33.2441ZM333.918 16.0176V23.2295H315.051V16.0176H333.918ZM319.392 6.8916H328.928V41.7207C328.928 42.7461 329.03 43.5322 329.235 44.0791C329.44 44.626 329.748 45.0133 330.158 45.2412C330.591 45.4463 331.161 45.5488 331.867 45.5488C332.346 45.5488 332.79 45.526 333.2 45.4805C333.61 45.4121 333.918 45.3438 334.123 45.2754V52.7607C333.371 53.057 332.574 53.2848 331.73 53.4443C330.91 53.6038 329.93 53.6836 328.791 53.6836C326.877 53.6836 325.214 53.319 323.801 52.5898C322.411 51.8607 321.328 50.6986 320.554 49.1035C319.779 47.4857 319.392 45.3665 319.392 42.7461V6.8916ZM348.82 24.2549V53H339.25V16.0176H348.273L348.82 24.2549ZM357.536 15.7441L357.399 25.2803C356.966 25.1891 356.442 25.1208 355.827 25.0752C355.235 25.0296 354.711 25.0068 354.255 25.0068C353.184 25.0068 352.272 25.1777 351.521 25.5195C350.769 25.8385 350.142 26.3285 349.641 26.9893C349.162 27.6273 348.798 28.4248 348.547 29.3818C348.296 30.3389 348.148 31.4212 348.103 32.6289L346.291 31.9453C346.291 29.5299 346.473 27.3197 346.838 25.3145C347.225 23.2865 347.795 21.5319 348.547 20.0508C349.299 18.5469 350.199 17.3848 351.247 16.5645C352.318 15.7441 353.526 15.334 354.87 15.334C355.326 15.334 355.804 15.3796 356.306 15.4707C356.83 15.5391 357.24 15.6302 357.536 15.7441ZM377.702 44.4893V27.3994C377.702 26.2829 377.565 25.3942 377.292 24.7334C377.041 24.0726 376.654 23.5941 376.13 23.2979C375.629 22.9788 375.013 22.8193 374.284 22.8193C373.464 22.8193 372.78 22.9902 372.233 23.332C371.687 23.6738 371.276 24.1637 371.003 24.8018C370.752 25.4398 370.627 26.2031 370.627 27.0918H361.022C361.022 25.4967 361.33 23.9928 361.945 22.5801C362.561 21.1445 363.461 19.8913 364.646 18.8203C365.853 17.7266 367.289 16.8721 368.952 16.2568C370.616 15.6416 372.484 15.334 374.558 15.334C377.019 15.334 379.206 15.7555 381.12 16.5986C383.034 17.4189 384.549 18.7292 385.666 20.5293C386.783 22.3294 387.341 24.665 387.341 27.5361V44.0107C387.341 46.0843 387.443 47.7705 387.648 49.0693C387.876 50.3682 388.207 51.4847 388.64 52.4189V53H379.001C378.568 51.9746 378.238 50.6986 378.01 49.1719C377.805 47.6224 377.702 46.0615 377.702 44.4893ZM378.864 30.4072L378.898 36.1494H375.378C374.466 36.1494 373.669 36.2975 372.985 36.5938C372.325 36.89 371.766 37.3115 371.311 37.8584C370.855 38.3825 370.513 38.9977 370.285 39.7041C370.08 40.4105 369.978 41.1624 369.978 41.96C369.978 42.8486 370.103 43.6006 370.354 44.2158C370.604 44.8311 370.98 45.2982 371.481 45.6172C371.983 45.9362 372.575 46.0957 373.259 46.0957C374.307 46.0957 375.218 45.8792 375.993 45.4463C376.768 45.0133 377.338 44.4893 377.702 43.874C378.09 43.2588 378.215 42.6891 378.078 42.165L380.266 45.8906C379.992 46.7337 379.616 47.611 379.138 48.5225C378.682 49.4339 378.101 50.277 377.395 51.0518C376.688 51.8265 375.811 52.4645 374.763 52.9658C373.737 53.4443 372.518 53.6836 371.105 53.6836C369.123 53.6836 367.312 53.2279 365.671 52.3164C364.03 51.4049 362.731 50.1289 361.774 48.4883C360.84 46.8477 360.373 44.8994 360.373 42.6436C360.373 40.7751 360.669 39.0889 361.262 37.585C361.877 36.0583 362.788 34.7708 363.996 33.7227C365.204 32.6517 366.73 31.8314 368.576 31.2617C370.422 30.6921 372.587 30.4072 375.07 30.4072H378.864ZM409.455 35.7734V33.2783C409.455 30.3844 409.797 27.821 410.48 25.5879C411.187 23.3548 412.189 21.4863 413.488 19.9824C414.787 18.4557 416.348 17.305 418.171 16.5303C420.017 15.7327 422.079 15.334 424.357 15.334C426.659 15.334 428.721 15.7327 430.544 16.5303C432.39 17.305 433.962 18.4557 435.261 19.9824C436.582 21.4863 437.596 23.3548 438.303 25.5879C439.009 27.821 439.362 30.3844 439.362 33.2783V35.7734C439.362 38.6445 439.009 41.1966 438.303 43.4297C437.596 45.6628 436.582 47.5426 435.261 49.0693C433.962 50.596 432.401 51.7467 430.578 52.5215C428.755 53.2962 426.704 53.6836 424.426 53.6836C422.147 53.6836 420.085 53.2962 418.239 52.5215C416.416 51.7467 414.844 50.596 413.522 49.0693C412.201 47.5426 411.187 45.6628 410.48 43.4297C409.797 41.1966 409.455 38.6445 409.455 35.7734ZM419.025 33.2783V35.7734C419.025 37.4824 419.139 38.9635 419.367 40.2168C419.618 41.4701 419.971 42.5068 420.427 43.3271C420.905 44.1475 421.475 44.7513 422.136 45.1387C422.797 45.526 423.56 45.7197 424.426 45.7197C425.292 45.7197 426.066 45.526 426.75 45.1387C427.434 44.7513 427.992 44.1475 428.425 43.3271C428.881 42.5068 429.211 41.4701 429.416 40.2168C429.644 38.9635 429.758 37.4824 429.758 35.7734V33.2783C429.758 31.6149 429.632 30.1566 429.382 28.9033C429.131 27.6273 428.778 26.5905 428.322 25.793C427.867 24.9727 427.297 24.3574 426.613 23.9473C425.952 23.5143 425.201 23.2979 424.357 23.2979C423.514 23.2979 422.762 23.5143 422.102 23.9473C421.464 24.3574 420.905 24.9727 420.427 25.793C419.971 26.5905 419.618 27.6273 419.367 28.9033C419.139 30.1566 419.025 31.6149 419.025 33.2783ZM14.9189 127.72C15.8076 127.72 16.571 127.537 17.209 127.173C17.8698 126.808 18.3711 126.216 18.7129 125.396C19.0547 124.575 19.237 123.516 19.2598 122.217H28.249C28.249 124.997 27.6566 127.401 26.4717 129.429C25.3096 131.434 23.7373 132.983 21.7549 134.077C19.7952 135.148 17.5736 135.684 15.0898 135.684C12.6061 135.684 10.4414 135.285 8.5957 134.487C6.75 133.69 5.22331 132.528 4.01562 131.001C2.83073 129.474 1.93066 127.617 1.31543 125.43C0.722982 123.219 0.426758 120.69 0.426758 117.842V115.142C0.426758 112.339 0.722982 109.832 1.31543 107.622C1.93066 105.412 2.83073 103.543 4.01562 102.017C5.22331 100.49 6.73861 99.3278 8.56152 98.5303C10.4072 97.7327 12.5719 97.334 15.0557 97.334C17.7217 97.334 20.0345 97.8923 21.9941 99.0088C23.9538 100.103 25.4805 101.72 26.5742 103.862C27.6908 106.004 28.249 108.647 28.249 111.792H19.2598C19.237 110.379 19.0661 109.206 18.7471 108.271C18.4508 107.314 17.9837 106.585 17.3457 106.084C16.7305 105.56 15.9102 105.298 14.8848 105.298C13.8138 105.298 12.9479 105.526 12.2871 105.981C11.6491 106.414 11.1592 107.052 10.8174 107.896C10.4984 108.716 10.2819 109.741 10.168 110.972C10.054 112.202 9.99707 113.592 9.99707 115.142V117.842C9.99707 119.505 10.0426 120.952 10.1338 122.183C10.2477 123.39 10.4642 124.416 10.7832 125.259C11.125 126.079 11.6149 126.694 12.2529 127.104C12.9137 127.515 13.8024 127.72 14.9189 127.72ZM50.0557 126.489V109.399C50.0557 108.283 49.9189 107.394 49.6455 106.733C49.3949 106.073 49.0075 105.594 48.4834 105.298C47.9821 104.979 47.3669 104.819 46.6377 104.819C45.8174 104.819 45.1338 104.99 44.5869 105.332C44.04 105.674 43.6299 106.164 43.3564 106.802C43.1058 107.44 42.9805 108.203 42.9805 109.092H33.376C33.376 107.497 33.6836 105.993 34.2988 104.58C34.9141 103.145 35.8141 101.891 36.999 100.82C38.2067 99.7266 39.6423 98.8721 41.3057 98.2568C42.9691 97.6416 44.8376 97.334 46.9111 97.334C49.3721 97.334 51.5596 97.7555 53.4736 98.5986C55.3877 99.4189 56.903 100.729 58.0195 102.529C59.1361 104.329 59.6943 106.665 59.6943 109.536V126.011C59.6943 128.084 59.7969 129.771 60.002 131.069C60.2298 132.368 60.5602 133.485 60.9932 134.419V135H51.3545C50.9215 133.975 50.5911 132.699 50.3633 131.172C50.1582 129.622 50.0557 128.062 50.0557 126.489ZM51.2178 112.407L51.252 118.149H47.7314C46.82 118.149 46.0225 118.298 45.3389 118.594C44.6781 118.89 44.1198 119.312 43.6641 119.858C43.2083 120.382 42.8665 120.998 42.6387 121.704C42.4336 122.41 42.3311 123.162 42.3311 123.96C42.3311 124.849 42.4564 125.601 42.707 126.216C42.9577 126.831 43.3337 127.298 43.835 127.617C44.3363 127.936 44.9287 128.096 45.6123 128.096C46.6605 128.096 47.5719 127.879 48.3467 127.446C49.1214 127.013 49.6911 126.489 50.0557 125.874C50.443 125.259 50.5684 124.689 50.4316 124.165L52.6191 127.891C52.3457 128.734 51.9697 129.611 51.4912 130.522C51.0355 131.434 50.4544 132.277 49.748 133.052C49.0417 133.826 48.1644 134.465 47.1162 134.966C46.0908 135.444 44.8717 135.684 43.459 135.684C41.4766 135.684 39.665 135.228 38.0244 134.316C36.3838 133.405 35.085 132.129 34.1279 130.488C33.1937 128.848 32.7266 126.899 32.7266 124.644C32.7266 122.775 33.0228 121.089 33.6152 119.585C34.2305 118.058 35.1419 116.771 36.3496 115.723C37.5573 114.652 39.084 113.831 40.9297 113.262C42.7754 112.692 44.9401 112.407 47.4238 112.407H51.2178ZM49.3379 82.4658L58.3271 92.002V92.4121H50.876L46.6035 87.5244L42.3311 92.4463H34.9824V91.9336L43.8691 82.4658H49.3379ZM76.1689 105.913V135H66.5645V98.0176H75.5537L76.1689 105.913ZM74.7334 115.244L72.1699 115.312C72.1243 112.533 72.3864 110.037 72.9561 107.827C73.5485 105.617 74.3802 103.737 75.4512 102.188C76.5449 100.615 77.8438 99.4189 79.3477 98.5986C80.8743 97.7555 82.5719 97.334 84.4404 97.334C85.876 97.334 87.1862 97.5846 88.3711 98.0859C89.5788 98.5872 90.6156 99.3848 91.4814 100.479C92.3473 101.572 93.0195 103.031 93.498 104.854C93.9766 106.654 94.2158 108.864 94.2158 111.484V135H84.6113V111.416C84.6113 109.821 84.4518 108.59 84.1328 107.725C83.8138 106.836 83.3353 106.221 82.6973 105.879C82.0592 105.514 81.2617 105.332 80.3047 105.332C79.3932 105.332 78.5843 105.594 77.8779 106.118C77.1715 106.619 76.5791 107.314 76.1006 108.203C75.6449 109.092 75.2917 110.14 75.041 111.348C74.8132 112.555 74.7106 113.854 74.7334 115.244ZM114.587 127.72C115.476 127.72 116.239 127.537 116.877 127.173C117.538 126.808 118.039 126.216 118.381 125.396C118.723 124.575 118.905 123.516 118.928 122.217H127.917C127.917 124.997 127.325 127.401 126.14 129.429C124.978 131.434 123.405 132.983 121.423 134.077C119.463 135.148 117.242 135.684 114.758 135.684C112.274 135.684 110.109 135.285 108.264 134.487C106.418 133.69 104.891 132.528 103.684 131.001C102.499 129.474 101.599 127.617 100.983 125.43C100.391 123.219 100.095 120.69 100.095 117.842V115.142C100.095 112.339 100.391 109.832 100.983 107.622C101.599 105.412 102.499 103.543 103.684 102.017C104.891 100.49 106.407 99.3278 108.229 98.5303C110.075 97.7327 112.24 97.334 114.724 97.334C117.39 97.334 119.702 97.8923 121.662 99.0088C123.622 100.103 125.148 101.72 126.242 103.862C127.359 106.004 127.917 108.647 127.917 111.792H118.928C118.905 110.379 118.734 109.206 118.415 108.271C118.119 107.314 117.652 106.585 117.014 106.084C116.398 105.56 115.578 105.298 114.553 105.298C113.482 105.298 112.616 105.526 111.955 105.981C111.317 106.414 110.827 107.052 110.485 107.896C110.166 108.716 109.95 109.741 109.836 110.972C109.722 112.202 109.665 113.592 109.665 115.142V117.842C109.665 119.505 109.711 120.952 109.802 122.183C109.916 123.39 110.132 124.416 110.451 125.259C110.793 126.079 111.283 126.694 111.921 127.104C112.582 127.515 113.47 127.72 114.587 127.72ZM148.322 135.684C145.793 135.684 143.549 135.296 141.589 134.521C139.652 133.747 138.011 132.63 136.667 131.172C135.323 129.691 134.297 127.902 133.591 125.806C132.884 123.709 132.531 121.317 132.531 118.628V115.586C132.531 112.578 132.873 109.946 133.557 107.69C134.24 105.412 135.209 103.498 136.462 101.948C137.715 100.399 139.253 99.248 141.076 98.4961C142.922 97.7214 145.007 97.334 147.331 97.334C149.655 97.334 151.695 97.7214 153.449 98.4961C155.227 99.248 156.696 100.387 157.858 101.914C159.021 103.418 159.898 105.286 160.49 107.52C161.083 109.753 161.379 112.35 161.379 115.312V119.688H136.599V112.954H151.979V112.1C151.979 110.596 151.82 109.342 151.501 108.34C151.182 107.314 150.681 106.551 149.997 106.05C149.313 105.549 148.402 105.298 147.263 105.298C146.306 105.298 145.497 105.492 144.836 105.879C144.175 106.266 143.651 106.87 143.264 107.69C142.876 108.511 142.591 109.582 142.409 110.903C142.227 112.202 142.136 113.763 142.136 115.586V118.628C142.136 120.337 142.284 121.772 142.58 122.935C142.876 124.074 143.309 125.008 143.879 125.737C144.471 126.444 145.189 126.956 146.032 127.275C146.875 127.572 147.855 127.72 148.972 127.72C150.658 127.72 152.173 127.424 153.518 126.831C154.885 126.216 156.047 125.384 157.004 124.336L160.832 130.146C160.171 131.012 159.26 131.878 158.098 132.744C156.936 133.61 155.546 134.316 153.928 134.863C152.31 135.41 150.441 135.684 148.322 135.684ZM176.486 106.255V135H166.916V98.0176H175.939L176.486 106.255ZM185.202 97.7441L185.065 107.28C184.632 107.189 184.108 107.121 183.493 107.075C182.901 107.03 182.377 107.007 181.921 107.007C180.85 107.007 179.938 107.178 179.187 107.52C178.435 107.839 177.808 108.328 177.307 108.989C176.828 109.627 176.464 110.425 176.213 111.382C175.962 112.339 175.814 113.421 175.769 114.629L173.957 113.945C173.957 111.53 174.139 109.32 174.504 107.314C174.891 105.286 175.461 103.532 176.213 102.051C176.965 100.547 177.865 99.3848 178.913 98.5645C179.984 97.7441 181.192 97.334 182.536 97.334C182.992 97.334 183.47 97.3796 183.972 97.4707C184.496 97.5391 184.906 97.6302 185.202 97.7441ZM224.133 126.831V82.5H233.737V135L225.056 135.034L224.133 126.831ZM204.958 117.808V115.347C204.958 112.339 205.209 109.707 205.71 107.451C206.234 105.195 207.009 103.315 208.034 101.812C209.06 100.308 210.313 99.1911 211.794 98.4619C213.298 97.71 215.018 97.334 216.955 97.334C218.71 97.334 220.248 97.7783 221.569 98.667C222.914 99.5329 224.053 100.752 224.987 102.324C225.922 103.896 226.674 105.754 227.243 107.896C227.813 110.037 228.212 112.384 228.439 114.937V118.491C228.166 120.907 227.744 123.162 227.175 125.259C226.628 127.355 225.876 129.178 224.919 130.728C223.985 132.277 222.857 133.496 221.535 134.385C220.214 135.251 218.675 135.684 216.921 135.684C214.984 135.684 213.264 135.296 211.76 134.521C210.279 133.747 209.025 132.607 208 131.104C206.997 129.577 206.234 127.708 205.71 125.498C205.209 123.265 204.958 120.701 204.958 117.808ZM214.528 115.347V117.808C214.528 119.539 214.608 121.032 214.768 122.285C214.95 123.516 215.235 124.53 215.622 125.327C216.032 126.102 216.568 126.683 217.229 127.07C217.889 127.435 218.71 127.617 219.689 127.617C220.965 127.617 222.002 127.298 222.8 126.66C223.597 125.999 224.19 125.099 224.577 123.96C224.987 122.798 225.215 121.465 225.261 119.961V113.501C225.215 112.248 225.067 111.12 224.816 110.117C224.566 109.115 224.213 108.26 223.757 107.554C223.301 106.847 222.731 106.3 222.048 105.913C221.387 105.526 220.612 105.332 219.724 105.332C218.767 105.332 217.946 105.526 217.263 105.913C216.602 106.3 216.078 106.904 215.69 107.725C215.303 108.522 215.007 109.559 214.802 110.835C214.619 112.088 214.528 113.592 214.528 115.347ZM255.852 135.684C253.322 135.684 251.078 135.296 249.118 134.521C247.181 133.747 245.541 132.63 244.196 131.172C242.852 129.691 241.826 127.902 241.12 125.806C240.414 123.709 240.061 121.317 240.061 118.628V115.586C240.061 112.578 240.402 109.946 241.086 107.69C241.77 105.412 242.738 103.498 243.991 101.948C245.244 100.399 246.783 99.248 248.605 98.4961C250.451 97.7214 252.536 97.334 254.86 97.334C257.185 97.334 259.224 97.7214 260.979 98.4961C262.756 99.248 264.226 100.387 265.388 101.914C266.55 103.418 267.427 105.286 268.02 107.52C268.612 109.753 268.908 112.35 268.908 115.312V119.688H244.128V112.954H259.509V112.1C259.509 110.596 259.349 109.342 259.03 108.34C258.711 107.314 258.21 106.551 257.526 106.05C256.843 105.549 255.931 105.298 254.792 105.298C253.835 105.298 253.026 105.492 252.365 105.879C251.704 106.266 251.18 106.87 250.793 107.69C250.406 108.511 250.121 109.582 249.938 110.903C249.756 112.202 249.665 113.763 249.665 115.586V118.628C249.665 120.337 249.813 121.772 250.109 122.935C250.406 124.074 250.839 125.008 251.408 125.737C252.001 126.444 252.718 126.956 253.562 127.275C254.405 127.572 255.384 127.72 256.501 127.72C258.187 127.72 259.702 127.424 261.047 126.831C262.414 126.216 263.576 125.384 264.533 124.336L268.361 130.146C267.701 131.012 266.789 131.878 265.627 132.744C264.465 133.61 263.075 134.316 261.457 134.863C259.839 135.41 257.971 135.684 255.852 135.684ZM300.217 105.674V135H290.612V98.0176H299.636L300.217 105.674ZM298.85 115.244L296.218 115.312C296.172 112.715 296.4 110.322 296.901 108.135C297.403 105.947 298.155 104.045 299.157 102.427C300.183 100.809 301.47 99.5557 303.02 98.667C304.569 97.7783 306.381 97.334 308.454 97.334C309.799 97.334 311.04 97.5846 312.18 98.0859C313.319 98.5645 314.31 99.3278 315.153 100.376C315.996 101.401 316.646 102.746 317.102 104.409C317.557 106.05 317.785 108.021 317.785 110.322V135H308.215V111.484C308.215 109.844 308.055 108.59 307.736 107.725C307.417 106.836 306.962 106.221 306.369 105.879C305.777 105.514 305.048 105.332 304.182 105.332C303.27 105.332 302.473 105.583 301.789 106.084C301.105 106.585 300.547 107.292 300.114 108.203C299.704 109.092 299.385 110.14 299.157 111.348C298.952 112.555 298.85 113.854 298.85 115.244ZM316.862 114.287L313.41 114.731C313.365 112.293 313.581 110.026 314.06 107.93C314.538 105.811 315.279 103.965 316.281 102.393C317.284 100.798 318.537 99.5557 320.041 98.667C321.568 97.7783 323.334 97.334 325.339 97.334C326.843 97.334 328.21 97.5846 329.44 98.0859C330.671 98.5872 331.719 99.3962 332.585 100.513C333.474 101.606 334.146 103.053 334.602 104.854C335.08 106.654 335.319 108.841 335.319 111.416V135H325.715V111.45C325.715 109.787 325.555 108.511 325.236 107.622C324.917 106.733 324.462 106.13 323.869 105.811C323.277 105.492 322.57 105.332 321.75 105.332C320.93 105.332 320.212 105.56 319.597 106.016C319.004 106.471 318.503 107.109 318.093 107.93C317.683 108.727 317.375 109.673 317.17 110.767C316.965 111.838 316.862 113.011 316.862 114.287ZM358.835 126.489V109.399C358.835 108.283 358.698 107.394 358.425 106.733C358.174 106.073 357.787 105.594 357.263 105.298C356.761 104.979 356.146 104.819 355.417 104.819C354.597 104.819 353.913 104.99 353.366 105.332C352.819 105.674 352.409 106.164 352.136 106.802C351.885 107.44 351.76 108.203 351.76 109.092H342.155C342.155 107.497 342.463 105.993 343.078 104.58C343.693 103.145 344.593 101.891 345.778 100.82C346.986 99.7266 348.422 98.8721 350.085 98.2568C351.748 97.6416 353.617 97.334 355.69 97.334C358.151 97.334 360.339 97.7555 362.253 98.5986C364.167 99.4189 365.682 100.729 366.799 102.529C367.915 104.329 368.474 106.665 368.474 109.536V126.011C368.474 128.084 368.576 129.771 368.781 131.069C369.009 132.368 369.34 133.485 369.772 134.419V135H360.134C359.701 133.975 359.37 132.699 359.143 131.172C358.938 129.622 358.835 128.062 358.835 126.489ZM359.997 112.407L360.031 118.149H356.511C355.599 118.149 354.802 118.298 354.118 118.594C353.457 118.89 352.899 119.312 352.443 119.858C351.988 120.382 351.646 120.998 351.418 121.704C351.213 122.41 351.11 123.162 351.11 123.96C351.11 124.849 351.236 125.601 351.486 126.216C351.737 126.831 352.113 127.298 352.614 127.617C353.116 127.936 353.708 128.096 354.392 128.096C355.44 128.096 356.351 127.879 357.126 127.446C357.901 127.013 358.47 126.489 358.835 125.874C359.222 125.259 359.348 124.689 359.211 124.165L361.398 127.891C361.125 128.734 360.749 129.611 360.271 130.522C359.815 131.434 359.234 132.277 358.527 133.052C357.821 133.826 356.944 134.465 355.896 134.966C354.87 135.444 353.651 135.684 352.238 135.684C350.256 135.684 348.444 135.228 346.804 134.316C345.163 133.405 343.864 132.129 342.907 130.488C341.973 128.848 341.506 126.899 341.506 124.644C341.506 122.775 341.802 121.089 342.395 119.585C343.01 118.058 343.921 116.771 345.129 115.723C346.337 114.652 347.863 113.831 349.709 113.262C351.555 112.692 353.719 112.407 356.203 112.407H359.997ZM385.188 105.674V135H375.583V98.0176H384.606L385.188 105.674ZM383.82 115.244L381.188 115.312C381.143 112.715 381.371 110.322 381.872 108.135C382.373 105.947 383.125 104.045 384.128 102.427C385.153 100.809 386.441 99.5557 387.99 98.667C389.54 97.7783 391.351 97.334 393.425 97.334C394.769 97.334 396.011 97.5846 397.15 98.0859C398.29 98.5645 399.281 99.3278 400.124 100.376C400.967 101.401 401.617 102.746 402.072 104.409C402.528 106.05 402.756 108.021 402.756 110.322V135H393.186V111.484C393.186 109.844 393.026 108.59 392.707 107.725C392.388 106.836 391.932 106.221 391.34 105.879C390.747 105.514 390.018 105.332 389.152 105.332C388.241 105.332 387.443 105.583 386.76 106.084C386.076 106.585 385.518 107.292 385.085 108.203C384.675 109.092 384.356 110.14 384.128 111.348C383.923 112.555 383.82 113.854 383.82 115.244ZM401.833 114.287L398.381 114.731C398.335 112.293 398.552 110.026 399.03 107.93C399.509 105.811 400.249 103.965 401.252 102.393C402.255 100.798 403.508 99.5557 405.012 98.667C406.538 97.7783 408.304 97.334 410.31 97.334C411.813 97.334 413.181 97.5846 414.411 98.0859C415.642 98.5872 416.69 99.3962 417.556 100.513C418.444 101.606 419.117 103.053 419.572 104.854C420.051 106.654 420.29 108.841 420.29 111.416V135H410.686V111.45C410.686 109.787 410.526 108.511 410.207 107.622C409.888 106.733 409.432 106.13 408.84 105.811C408.247 105.492 407.541 105.332 406.721 105.332C405.9 105.332 405.183 105.56 404.567 106.016C403.975 106.471 403.474 107.109 403.063 107.93C402.653 108.727 402.346 109.673 402.141 110.767C401.936 111.838 401.833 113.011 401.833 114.287ZM443.806 126.489V109.399C443.806 108.283 443.669 107.394 443.396 106.733C443.145 106.073 442.757 105.594 442.233 105.298C441.732 104.979 441.117 104.819 440.388 104.819C439.567 104.819 438.884 104.99 438.337 105.332C437.79 105.674 437.38 106.164 437.106 106.802C436.856 107.44 436.73 108.203 436.73 109.092H427.126C427.126 107.497 427.434 105.993 428.049 104.58C428.664 103.145 429.564 101.891 430.749 100.82C431.957 99.7266 433.392 98.8721 435.056 98.2568C436.719 97.6416 438.588 97.334 440.661 97.334C443.122 97.334 445.31 97.7555 447.224 98.5986C449.138 99.4189 450.653 100.729 451.77 102.529C452.886 104.329 453.444 106.665 453.444 109.536V126.011C453.444 128.084 453.547 129.771 453.752 131.069C453.98 132.368 454.31 133.485 454.743 134.419V135H445.104C444.672 133.975 444.341 132.699 444.113 131.172C443.908 129.622 443.806 128.062 443.806 126.489ZM444.968 112.407L445.002 118.149H441.481C440.57 118.149 439.772 118.298 439.089 118.594C438.428 118.89 437.87 119.312 437.414 119.858C436.958 120.382 436.617 120.998 436.389 121.704C436.184 122.41 436.081 123.162 436.081 123.96C436.081 124.849 436.206 125.601 436.457 126.216C436.708 126.831 437.084 127.298 437.585 127.617C438.086 127.936 438.679 128.096 439.362 128.096C440.41 128.096 441.322 127.879 442.097 127.446C442.871 127.013 443.441 126.489 443.806 125.874C444.193 125.259 444.318 124.689 444.182 124.165L446.369 127.891C446.096 128.734 445.72 129.611 445.241 130.522C444.785 131.434 444.204 132.277 443.498 133.052C442.792 133.826 441.914 134.465 440.866 134.966C439.841 135.444 438.622 135.684 437.209 135.684C435.227 135.684 433.415 135.228 431.774 134.316C430.134 133.405 428.835 132.129 427.878 130.488C426.944 128.848 426.477 126.899 426.477 124.644C426.477 122.775 426.773 121.089 427.365 119.585C427.98 118.058 428.892 116.771 430.1 115.723C431.307 114.652 432.834 113.831 434.68 113.262C436.525 112.692 438.69 112.407 441.174 112.407H444.968Z" fill="url(#paint0_linear_48_62)"/>
<defs>
<linearGradient id="paint0_linear_48_62" x1="267" y1="-12" x2="267" y2="152" gradientUnits="userSpaceOnUse">
<stop stop-color="#A63352"/>
<stop offset="1" stop-color="#BF6079"/>
</linearGradient>
</defs>
</svg>
